<svg width="1137" height="505" fill="none" xmlns="http://www.w3.org/2000/svg"><g clip-path="url(#clip0)"><path d="M1137 502.768H0v2h1137v-2z" fill="#3F3D56"/><path d="M176.058 69.895c18.933 0 34.281-15.348 34.281-34.28 0-18.933-15.348-34.28-34.281-34.28-18.932 0-34.28 15.348-34.28 34.28 0 18.932 15.348 34.28 34.28 34.28z" fill="#FF6584"/><path d="M167.665 360.324l-1.951-.44c21.756-96.751 76.43-184.609 153.951-247.392a444.117 444.117 0 01712.155 246.211l-1.95.444C983.817 156.938 806.596 15.712 598.901 15.712c-204.974 0-386.335 144.93-431.236 344.612z" fill="#3F3D56"/><path d="M963.378 69.768H239.544v434h723.834v-434z" fill="#3F3D56"/><path d="M963.99 102.713H240.156v.962H963.99v-.962z" fill="#2F2E41"/><path d="M271.443 93.203a7.509 7.509 0 100-15.018 7.509 7.509 0 000 15.018zM298.474 93.203a7.509 7.509 0 100-15.018 7.509 7.509 0 000 15.018zM325.505 93.203a7.509 7.509 0 100-15.018 7.509 7.509 0 000 15.018z" fill="#00B0FF"/><path d="M74.397 493.985c1.694 6.261 7.496 10.14 7.496 10.14s3.056-6.275 1.362-12.537c-1.694-6.261-7.496-10.14-7.496-10.14s-3.056 6.275-1.362 12.537z" fill="#3F3D56"/><path d="M76.886 492.639c4.649 4.525 5.216 11.481 5.216 11.481s-6.968-.381-11.616-4.906c-4.649-4.525-5.216-11.48-5.216-11.48s6.968.38 11.616 4.905z" fill="#00B0FF"/><path d="M163.546 271.826h-5.874V503.88h5.874V271.826z" fill="#3F3D56"/><path d="M217.764 301.399c.374 81.143-56.715 147.188-56.715 147.188s-57.695-65.516-58.069-146.659c-.374-81.143 56.715-147.187 56.715-147.187s57.695 65.515 58.069 146.658z" fill="#00B0FF"/><path opacity=".1" d="M217.764 301.399c.374 81.143-56.715 147.188-56.715 147.188s-57.695-65.516-58.069-146.659c-.374-81.143 56.715-147.187 56.715-147.187s57.695 65.515 58.069 146.658z" fill="#000"/><path d="M87.174 271.826H81.3V503.88h5.874V271.826z" fill="#3F3D56"/><path d="M141.392 301.399c.374 81.143-56.715 147.188-56.715 147.188s-57.695-65.516-58.069-146.659c-.374-81.143 56.715-147.187 56.715-147.187s57.695 65.515 58.069 146.658z" fill="#00B0FF"/><path d="M217.979 50.079c-29.207.134-52.98.566-52.98.566s28.258-37.431 52.874-23.563c24.616 13.868 52.894 23.075 52.894 23.075s-23.581-.213-52.788-.078zM579.979 55.079c-29.207.134-52.98.566-52.98.566s28.258-37.431 52.874-23.563c24.616 13.868 52.894 23.075 52.894 23.075s-23.581-.213-52.788-.078zM867.979 26.079c-29.207.134-52.98.566-52.98.566s28.258-37.431 52.874-23.563c24.616 13.868 52.894 23.075 52.894 23.075s-23.581-.213-52.788-.078z" fill="#F2F2F2"/><path d="M1056.17 270.826h-5.87V502.88h5.87V270.826z" fill="#3F3D56"/><path d="M1110.39 300.399c.38 81.143-56.71 147.188-56.71 147.188s-57.698-65.516-58.072-146.659c-.374-81.143 56.712-147.187 56.712-147.187s57.7 65.515 58.07 146.658z" fill="#00B0FF"/><path d="M693 330.703c0 7.483-5.944 13.431-13.423 13.431-7.478 0-13.422-5.948-13.422-13.431 0-1.151.192-2.494.575-3.453l-19.367-8.442c-1.534 1.727-3.835 2.878-6.327 2.878a8.916 8.916 0 01-4.027-.959l-5.177 5.947-5.178 6.14c1.918 2.11 3.068 4.796 3.068 7.674 0 6.332-5.177 11.512-11.505 11.512-6.327 0-11.505-5.18-11.505-11.512 0-6.331 5.178-11.511 11.505-11.511 2.301 0 4.411.575 6.136 1.918l4.602-5.372-27.42-11.895c-1.726 2.11-4.218 3.262-7.095 3.262a9.005 9.005 0 01-9.012-9.018 9.004 9.004 0 019.012-9.017c2.301 0 4.411.959 5.945 2.302l16.49-13.238c-.383-.96-.575-1.919-.575-3.07 0-.959.192-1.727.383-2.686l-18.408-4.413c-.958 1.535-2.684 2.494-4.793 2.494-1.343 0-2.493-.384-3.644-1.343l-14.764 10.936a8.924 8.924 0 01.958 4.029 9.004 9.004 0 01-9.012 9.018c-3.068 0-5.752-1.535-7.478-3.837l-14.381 9.017-4.602 2.878c2.109 2.11 3.451 4.988 3.451 8.25 0 6.331-5.177 11.511-11.505 11.511-6.328 0-11.505-5.18-11.505-11.511 0-6.332 5.177-11.512 11.505-11.512 1.918 0 3.835.576 5.369 1.343l5.753-3.645 15.34-9.593c-.192-.768-.384-1.535-.384-2.302a9.005 9.005 0 019.012-9.018c2.493 0 4.602.959 6.328 2.494l14.765-10.936c-.192-.575-.384-1.343-.384-2.11 0-.768.192-1.343.384-1.919l-9.012-7.674a5.21 5.21 0 01-3.26 1.151c-2.876 0-5.369-2.302-5.369-5.372 0-2.878 2.301-5.372 5.369-5.372 2.876 0 5.369 2.302 5.369 5.372 0 .575 0 1.151-.192 1.535l9.012 7.674c.959-.767 2.301-1.343 3.644-1.343 1.342 0 2.684.576 3.643 1.343l9.396-6.907c-.192-.384-.192-.959-.192-1.343 0-2.686 2.301-4.988 4.985-4.988 2.685 0 4.986 2.302 4.986 4.988 0 2.686-2.109 4.989-4.986 4.989-1.15 0-2.109-.384-3.068-.96l-9.395 6.907c.191.576.383 1.343.383 2.111v.575l18.6 4.605c1.534-2.111 4.218-3.645 7.286-3.645 2.301 0 4.411.767 5.945 2.11l10.929-7.866c-.191-.576-.191-.96-.191-1.535 0-2.686 2.301-4.989 4.985-4.989 1.151 0 2.109.384 2.876.96l6.712-5.372c-.192-.384-.192-.96-.192-1.343 0-2.495 2.109-4.605 4.602-4.605 2.493 0 4.602 2.11 4.602 4.605 0 2.494-2.109 4.604-4.602 4.604-.959 0-1.918-.383-2.685-.767l-7.286 5.372c.192.576.192.959.192 1.535 0 2.686-2.301 4.988-4.986 4.988a4.712 4.712 0 01-2.876-.959l-10.546 7.866a8.916 8.916 0 011.15 4.413 9.004 9.004 0 01-9.012 9.017c-2.685 0-5.177-1.151-6.903-3.261l-16.107 12.854c.767 1.343 1.15 2.686 1.15 4.413 0 .768 0 1.535-.191 2.111l28.379 12.279 3.068-3.646c-1.151-1.343-1.918-3.261-1.918-5.18 0-4.604 3.643-8.25 8.245-8.25 4.602 0 8.246 3.646 8.246 8.25 0 .576 0 1.343-.192 1.919l19.175 8.442c2.301-3.838 6.519-6.332 11.313-6.332 7.287 0 13.231 5.948 13.231 13.43z" fill="#fff"/></g><defs><clipPath id="clip0"><path fill="#fff" d="M0 0h1137v504.768H0z"/></clipPath></defs></svg>