<svg width="1137" height="505" viewBox="0 0 1137 505" fill="none" xmlns="http://www.w3.org/2000/svg">
<g clip-path="url(#clip0)">
<path d="M1137 502.768H0V504.768H1137V502.768Z" fill="#3F3D56"/>
<path d="M176.058 69.8953C194.991 69.8953 210.339 54.5474 210.339 35.615C210.339 16.6825 194.991 1.33466 176.058 1.33466C157.126 1.33466 141.778 16.6825 141.778 35.615C141.778 54.5474 157.126 69.8953 176.058 69.8953Z" fill="#FFCD02"/>
<path d="M167.665 360.324L165.714 359.884C187.47 263.133 242.144 175.275 319.665 112.492C378.274 65.1009 447.979 33.4052 522.219 20.3898C596.459 7.3743 672.79 13.4673 744.024 38.0951C815.259 62.7229 879.054 105.075 929.403 161.164C979.751 217.253 1015 285.233 1031.82 358.703L1029.87 359.147C983.817 156.938 806.596 15.7122 598.901 15.7122C393.927 15.7122 212.566 160.642 167.665 360.324Z" fill="#3F3D56"/>
<path d="M963.378 69.7676H239.544V503.768H963.378V69.7676Z" fill="#3F3D56"/>
<path d="M963.99 102.713H240.156V103.675H963.99V102.713Z" fill="#2F2E41"/>
<path d="M271.443 93.2032C275.59 93.2032 278.952 89.8415 278.952 85.6946C278.952 81.5477 275.59 78.1859 271.443 78.1859C267.296 78.1859 263.935 81.5477 263.935 85.6946C263.935 89.8415 267.296 93.2032 271.443 93.2032Z" fill="#00B0FF"/>
<path d="M298.474 93.2032C302.621 93.2032 305.983 89.8415 305.983 85.6946C305.983 81.5477 302.621 78.1859 298.474 78.1859C294.327 78.1859 290.966 81.5477 290.966 85.6946C290.966 89.8415 294.327 93.2032 298.474 93.2032Z" fill="#00B0FF"/>
<path d="M325.505 93.2032C329.652 93.2032 333.014 89.8415 333.014 85.6946C333.014 81.5477 329.652 78.1859 325.505 78.1859C321.359 78.1859 317.997 81.5477 317.997 85.6946C317.997 89.8415 321.359 93.2032 325.505 93.2032Z" fill="#00B0FF"/>
<path d="M74.3973 493.985C76.0913 500.246 81.8934 504.125 81.8934 504.125C81.8934 504.125 84.9491 497.85 83.2552 491.588C81.5612 485.327 75.7591 481.448 75.7591 481.448C75.7591 481.448 72.7033 487.723 74.3973 493.985Z" fill="#3F3D56"/>
<path d="M76.8864 492.639C81.5346 497.164 82.1024 504.12 82.1024 504.12C82.1024 504.12 75.1339 503.739 70.4857 499.214C65.8374 494.689 65.2697 487.734 65.2697 487.734C65.2697 487.734 72.2382 488.114 76.8864 492.639Z" fill="#00B0FF"/>
<path d="M163.546 271.826H157.672V503.88H163.546V271.826Z" fill="#3F3D56"/>
<path d="M217.764 301.399C218.138 382.542 161.049 448.587 161.049 448.587C161.049 448.587 103.354 383.071 102.98 301.928C102.606 220.785 159.695 154.741 159.695 154.741C159.695 154.741 217.39 220.256 217.764 301.399Z" fill="#00B0FF"/>
<path opacity="0.1" d="M217.764 301.399C218.138 382.542 161.049 448.587 161.049 448.587C161.049 448.587 103.354 383.071 102.98 301.928C102.606 220.785 159.695 154.741 159.695 154.741C159.695 154.741 217.39 220.256 217.764 301.399Z" fill="black"/>
<path d="M87.1743 271.826H81.2996V503.88H87.1743V271.826Z" fill="#3F3D56"/>
<path d="M141.392 301.399C141.766 382.542 84.6772 448.587 84.6772 448.587C84.6772 448.587 26.9822 383.071 26.6083 301.928C26.2343 220.785 83.3229 154.741 83.3229 154.741C83.3229 154.741 141.018 220.256 141.392 301.399Z" fill="#00B0FF"/>
<path d="M217.979 50.0788C188.772 50.2134 164.999 50.6449 164.999 50.6449C164.999 50.6449 193.257 13.2139 217.873 27.0818C242.489 40.9498 270.767 50.1574 270.767 50.1574C270.767 50.1574 247.186 49.9441 217.979 50.0788Z" fill="#F2F2F2"/>
<path d="M579.979 55.0788C550.772 55.2134 526.999 55.6449 526.999 55.6449C526.999 55.6449 555.257 18.2139 579.873 32.0818C604.489 45.9498 632.767 55.1574 632.767 55.1574C632.767 55.1574 609.186 54.9441 579.979 55.0788Z" fill="#F2F2F2"/>
<path d="M867.979 26.0788C838.772 26.2134 814.999 26.6449 814.999 26.6449C814.999 26.6449 843.257 -10.7861 867.873 3.08185C892.489 16.9498 920.767 26.1574 920.767 26.1574C920.767 26.1574 897.186 25.9442 867.979 26.0788Z" fill="#F2F2F2"/>
<path d="M1056.17 270.826H1050.3V502.88H1056.17V270.826Z" fill="#3F3D56"/>
<path d="M1110.39 300.399C1110.77 381.542 1053.68 447.587 1053.68 447.587C1053.68 447.587 995.982 382.071 995.608 300.928C995.234 219.785 1052.32 153.741 1052.32 153.741C1052.32 153.741 1110.02 219.256 1110.39 300.399Z" fill="#00B0FF"/>
<path d="M693 330.703C693 338.186 687.056 344.134 679.577 344.134C672.099 344.134 666.155 338.186 666.155 330.703C666.155 329.552 666.347 328.209 666.73 327.25L647.363 318.808C645.829 320.535 643.528 321.686 641.036 321.686C639.502 321.686 638.159 321.302 637.009 320.727L631.832 326.674L626.654 332.814C628.572 334.924 629.722 337.61 629.722 340.488C629.722 346.82 624.545 352 618.217 352C611.89 352 606.712 346.82 606.712 340.488C606.712 334.157 611.89 328.977 618.217 328.977C620.518 328.977 622.628 329.552 624.353 330.895L628.955 325.523L601.535 313.628C599.809 315.738 597.317 316.89 594.44 316.89C589.455 316.89 585.428 312.86 585.428 307.872C585.428 302.884 589.455 298.855 594.44 298.855C596.741 298.855 598.851 299.814 600.385 301.157L616.875 287.919C616.492 286.959 616.3 286 616.3 284.849C616.3 283.89 616.492 283.122 616.683 282.163L598.275 277.75C597.317 279.285 595.591 280.244 593.482 280.244C592.139 280.244 590.989 279.86 589.838 278.901L575.074 289.837C575.649 290.988 576.032 292.331 576.032 293.866C576.032 298.855 572.006 302.884 567.02 302.884C563.952 302.884 561.268 301.349 559.542 299.047L545.161 308.064L540.559 310.942C542.668 313.052 544.01 315.93 544.01 319.192C544.01 325.523 538.833 330.703 532.505 330.703C526.177 330.703 521 325.523 521 319.192C521 312.86 526.177 307.68 532.505 307.68C534.423 307.68 536.34 308.256 537.874 309.023L543.627 305.378L558.967 295.785C558.775 295.017 558.583 294.25 558.583 293.483C558.583 288.494 562.61 284.465 567.595 284.465C570.088 284.465 572.197 285.424 573.923 286.959L588.688 276.023C588.496 275.448 588.304 274.68 588.304 273.913C588.304 273.145 588.496 272.57 588.688 271.994L579.676 264.32C578.717 265.087 577.566 265.471 576.416 265.471C573.54 265.471 571.047 263.169 571.047 260.099C571.047 257.221 573.348 254.727 576.416 254.727C579.292 254.727 581.785 257.029 581.785 260.099C581.785 260.674 581.785 261.25 581.593 261.634L590.605 269.308C591.564 268.541 592.906 267.965 594.249 267.965C595.591 267.965 596.933 268.541 597.892 269.308L607.288 262.401C607.096 262.017 607.096 261.442 607.096 261.058C607.096 258.372 609.397 256.07 612.081 256.07C614.766 256.07 617.067 258.372 617.067 261.058C617.067 263.744 614.958 266.047 612.081 266.047C610.931 266.047 609.972 265.663 609.013 265.087L599.618 271.994C599.809 272.57 600.001 273.337 600.001 274.105C600.001 274.297 600.001 274.488 600.001 274.68L618.601 279.285C620.135 277.174 622.819 275.64 625.887 275.64C628.188 275.64 630.298 276.407 631.832 277.75L642.761 269.884C642.57 269.308 642.57 268.924 642.57 268.349C642.57 265.663 644.871 263.36 647.555 263.36C648.706 263.36 649.664 263.744 650.431 264.32L657.143 258.948C656.951 258.564 656.951 257.988 656.951 257.605C656.951 255.11 659.06 253 661.553 253C664.046 253 666.155 255.11 666.155 257.605C666.155 260.099 664.046 262.209 661.553 262.209C660.594 262.209 659.635 261.826 658.868 261.442L651.582 266.814C651.774 267.39 651.774 267.773 651.774 268.349C651.774 271.035 649.473 273.337 646.788 273.337C645.638 273.337 644.679 272.953 643.912 272.378L633.366 280.244C634.133 281.587 634.516 283.122 634.516 284.657C634.516 289.645 630.489 293.674 625.504 293.674C622.819 293.674 620.327 292.523 618.601 290.413L602.494 303.267C603.261 304.61 603.644 305.953 603.644 307.68C603.644 308.448 603.644 309.215 603.453 309.791L631.832 322.07L634.9 318.424C633.749 317.081 632.982 315.163 632.982 313.244C632.982 308.64 636.625 304.994 641.227 304.994C645.829 304.994 649.473 308.64 649.473 313.244C649.473 313.82 649.473 314.587 649.281 315.163L668.456 323.605C670.757 319.767 674.975 317.273 679.769 317.273C687.056 317.273 693 323.221 693 330.703Z" fill="white"/>
</g>
<defs>
<clipPath id="clip0">
<rect width="1137" height="504.768" fill="white"/>
</clipPath>
</defs>
</svg>
